<svg data-v-423bf9ae="" xmlns="http://www.w3.org/2000/svg" viewBox="0 0 658 112" class="iconLeft"><!----><!----><!----><g data-v-423bf9ae="" id="5299bbfd-b9bc-4f4a-a3a4-d080a6759a29" fill="black" transform="matrix(5.988024248455585,0,0,5.988024248455585,122.30871773831007,3.7591466894994383)"><path d="M8.50 3.75L9.90 3.75L9.90 13.55L8.50 13.55L8.50 9.18L2.87 9.18L2.87 13.55L1.47 13.55L1.47 3.75L2.87 3.75L2.87 7.97L8.50 7.97L8.50 3.75ZM20.16 13.55L19.08 11.10L13.87 11.10L12.80 13.55L11.35 13.55L15.79 3.75L17.18 3.75L21.63 13.55L20.16 13.55ZM14.36 9.98L18.59 9.98L16.48 5.18L14.36 9.98ZM23.09 13.55L23.09 3.75L24.49 3.75L24.49 12.33L29.79 12.33L29.79 13.55L23.09 13.55ZM38.32 4.97L32.80 4.97L32.80 8.39L37.72 8.39L37.72 9.59L32.80 9.59L32.80 13.55L31.40 13.55L31.40 3.75L38.32 3.75L38.32 4.97ZM54.49 13.55L53.14 13.55L53.13 6.41L49.59 12.36L48.94 12.36L45.40 6.45L45.40 13.55L44.06 13.55L44.06 3.75L45.21 3.75L49.29 10.64L53.33 3.75L54.47 3.75L54.49 13.55ZM61.85 13.66Q60.37 13.66 59.18 13.01Q57.99 12.36 57.31 11.21Q56.63 10.07 56.63 8.65L56.63 8.65Q56.63 7.24 57.31 6.09Q57.99 4.94 59.18 4.29Q60.37 3.64 61.85 3.64L61.85 3.64Q63.32 3.64 64.51 4.29Q65.70 4.94 66.37 6.08Q67.05 7.22 67.05 8.65L67.05 8.65Q67.05 10.08 66.37 11.22Q65.70 12.36 64.51 13.01Q63.32 13.66 61.85 13.66L61.85 13.66ZM61.85 12.42Q62.93 12.42 63.79 11.93Q64.65 11.44 65.15 10.58Q65.65 9.72 65.65 8.65L65.65 8.65Q65.65 7.59 65.15 6.73Q64.65 5.87 63.79 5.38Q62.93 4.89 61.85 4.89L61.85 4.89Q60.77 4.89 59.90 5.38Q59.02 5.87 58.53 6.73Q58.03 7.59 58.03 8.65L58.03 8.65Q58.03 9.72 58.53 10.58Q59.02 11.44 59.90 11.93Q60.77 12.42 61.85 12.42L61.85 12.42ZM73.61 13.66Q72.13 13.66 70.94 13.01Q69.75 12.36 69.07 11.21Q68.39 10.07 68.39 8.65L68.39 8.65Q68.39 7.24 69.07 6.09Q69.75 4.94 70.94 4.29Q72.13 3.64 73.61 3.64L73.61 3.64Q75.08 3.64 76.27 4.29Q77.46 4.94 78.13 6.08Q78.81 7.22 78.81 8.65L78.81 8.65Q78.81 10.08 78.13 11.22Q77.46 12.36 76.27 13.01Q75.08 13.66 73.61 13.66L73.61 13.66ZM73.61 12.42Q74.69 12.42 75.55 11.93Q76.41 11.44 76.91 10.58Q77.41 9.72 77.41 8.65L77.41 8.65Q77.41 7.59 76.91 6.73Q76.41 5.87 75.55 5.38Q74.69 4.89 73.61 4.89L73.61 4.89Q72.53 4.89 71.66 5.38Q70.78 5.87 70.29 6.73Q69.79 7.59 69.79 8.65L69.79 8.65Q69.79 9.72 70.29 10.58Q70.78 11.44 71.66 11.93Q72.53 12.42 73.61 12.42L73.61 12.42ZM87.98 3.75L89.38 3.75L89.38 13.55L88.23 13.55L82.35 6.24L82.35 13.55L80.95 13.55L80.95 3.75L82.10 3.75L87.98 11.06L87.98 3.75Z"></path></g><!----><g data-v-423bf9ae="" id="f809f5e6-eb4d-45e3-a458-37ab3fc5f7ba" transform="matrix(1.1111111111111112,0,0,1.1111111111111112,0.44444444444444287,0.44444444444444287)" stroke="none" fill="black"><path d="M50.002 100C22.386 100 0 77.614 0 50.002 0 22.386 22.386 0 50.002 0c3.146 0 6.214.326 9.197.883a33.349 33.349 0 00-.866 7.451c0 18.41 14.927 33.333 33.337 33.333 2.56 0 5.051-.317 7.451-.867.554 2.987.879 6.051.879 9.201C100 77.614 77.614 100 50.002 100zm-7.451-82.469c-14.817 3.388-25.882 16.622-25.882 32.471 0 18.407 14.923 33.333 33.333 33.333 15.842 0 29.081-11.065 32.466-25.882-20.225-3.768-36.153-19.694-39.917-39.922z"></path></g><!----></svg>